<svg xmlns="http://www.w3.org/2000/svg" xmlns:xlink="http://www.w3.org/1999/xlink" width="500" zoomAndPan="magnify" viewBox="0 0 375 374.999991" height="500" preserveAspectRatio="xMidYMid meet" version="1.0"><defs><g/></defs><g fill="#ffffff" fill-opacity="1"><g transform="translate(68.978906, 262.607517)"><g><path d="M 26.546875 -15.453125 L 23.515625 -14.578125 C 22.960938 -16.003906 22.414062 -17.921875 21.875 -20.328125 C 21.34375 -22.742188 21.078125 -24.25 21.078125 -24.84375 C 18.628906 -24.84375 16.15625 -24.484375 13.65625 -23.765625 C 11.164062 -23.046875 9.175781 -22.28125 7.6875 -21.46875 C 6.207031 -20.65625 4.9375 -19.488281 3.875 -17.96875 C 2.820312 -16.457031 2.296875 -14.695312 2.296875 -12.6875 C 2.296875 -10.6875 2.804688 -8.914062 3.828125 -7.375 C 4.859375 -5.84375 6.222656 -4.6875 7.921875 -3.90625 C 11.179688 -2.375 14.59375 -1.609375 18.15625 -1.609375 C 21.726562 -1.609375 24.800781 -1.984375 27.375 -2.734375 C 29.957031 -3.484375 32.132812 -4.476562 33.90625 -5.71875 C 35.6875 -6.957031 37.304688 -8.519531 38.765625 -10.40625 C 40.234375 -12.300781 41.425781 -14.234375 42.34375 -16.203125 C 43.257812 -18.179688 44.15625 -20.441406 45.03125 -22.984375 C 45.914062 -25.523438 46.648438 -27.90625 47.234375 -30.125 C 48.828125 -36.019531 50.429688 -40.957031 52.046875 -44.9375 C 53.660156 -48.914062 56.046875 -52.832031 59.203125 -56.6875 C 62.367188 -60.550781 65.957031 -63.722656 69.96875 -66.203125 C 68.007812 -66.660156 65.515625 -66.890625 62.484375 -66.890625 C 59.453125 -66.890625 56.003906 -66.226562 52.140625 -64.90625 C 48.285156 -63.59375 44.691406 -61.753906 41.359375 -59.390625 C 38.035156 -57.023438 35.0625 -54.328125 32.4375 -51.296875 C 29.8125 -48.265625 27.75 -44.914062 26.25 -41.25 C 24.757812 -37.582031 24.015625 -33.90625 24.015625 -30.21875 C 31.179688 -28.75 36.363281 -26.09375 39.5625 -22.25 L 37.5 -20.09375 C 34.144531 -22.28125 31.632812 -23.566406 29.96875 -23.953125 C 28.3125 -24.347656 27.316406 -24.578125 26.984375 -24.640625 C 25.484375 -24.835938 24.457031 -24.9375 23.90625 -24.9375 C 24.300781 -22.519531 25.003906 -19.847656 26.015625 -16.921875 Z M 89.53125 -73.296875 L 90.515625 -71 C 87.515625 -70.445312 84.722656 -69.628906 82.140625 -68.546875 L 80.828125 -68.015625 C 83.171875 -66.835938 85.035156 -65.238281 86.421875 -63.21875 C 87.804688 -61.195312 88.5 -59.347656 88.5 -57.671875 C 88.5 -55.992188 88.351562 -54.582031 88.0625 -53.4375 C 87.769531 -52.300781 87.410156 -51.273438 86.984375 -50.359375 C 86.566406 -49.453125 86.003906 -48.5 85.296875 -47.5 C 84.597656 -46.507812 83.953125 -45.675781 83.359375 -45 C 82.773438 -44.332031 82.050781 -43.582031 81.1875 -42.75 C 80.320312 -41.925781 79.644531 -41.300781 79.15625 -40.875 C 78.28125 -40.15625 77.191406 -39.273438 75.890625 -38.234375 C 80.546875 -36.316406 84.097656 -34.046875 86.546875 -31.421875 C 88.992188 -28.796875 90.21875 -25.519531 90.21875 -21.59375 C 90.21875 -17.664062 89.035156 -13.859375 86.671875 -10.171875 C 84.304688 -6.484375 81.175781 -3.546875 77.28125 -1.359375 C 73.382812 0.816406 69.253906 1.90625 64.890625 1.90625 C 60.066406 1.90625 56.363281 0.550781 53.78125 -2.15625 C 52.382812 -3.625 51.6875 -5.332031 51.6875 -7.28125 C 51.6875 -9.238281 52.28125 -10.820312 53.46875 -12.03125 C 54.65625 -13.238281 56.097656 -13.84375 57.796875 -13.84375 C 59.492188 -13.84375 60.828125 -13.414062 61.796875 -12.5625 C 62.773438 -11.71875 63.265625 -10.734375 63.265625 -9.609375 C 63.265625 -8.484375 63.066406 -7.601562 62.671875 -6.96875 C 62.285156 -6.332031 61.820312 -5.832031 61.28125 -5.46875 C 60.75 -5.113281 60.191406 -4.820312 59.609375 -4.59375 C 58.597656 -4.207031 57.910156 -4.015625 57.546875 -4.015625 C 57.546875 -2.578125 59.320312 -1.675781 62.875 -1.3125 C 63.5 -1.25 64.070312 -1.21875 64.59375 -1.21875 C 69.125 -1.21875 72.921875 -2.925781 75.984375 -6.34375 C 79.046875 -9.769531 80.578125 -13.769531 80.578125 -18.34375 C 80.578125 -20.625 80.070312 -22.734375 79.0625 -24.671875 C 78.050781 -26.609375 76.8125 -28.160156 75.34375 -29.328125 C 73.882812 -30.503906 72.425781 -31.507812 70.96875 -32.34375 C 69.519531 -33.175781 68.289062 -33.820312 67.28125 -34.28125 C 66.269531 -34.738281 65.765625 -35.039062 65.765625 -35.1875 C 65.765625 -35.332031 66.253906 -35.726562 67.234375 -36.375 C 68.210938 -37.03125 69.410156 -37.882812 70.828125 -38.9375 C 72.242188 -40 73.648438 -41.210938 75.046875 -42.578125 C 76.453125 -43.953125 77.644531 -45.625 78.625 -47.59375 C 79.601562 -49.570312 80.09375 -51.554688 80.09375 -53.546875 C 80.09375 -55.535156 79.535156 -57.660156 78.421875 -59.921875 C 77.316406 -62.191406 75.707031 -63.78125 73.59375 -64.6875 C 67.457031 -60.90625 63.039062 -55.054688 60.34375 -47.140625 C 59.164062 -43.742188 58.285156 -40.695312 57.703125 -38 C 56.265625 -31.175781 55.21875 -26.453125 54.5625 -23.828125 C 53.914062 -21.210938 52.617188 -18.304688 50.671875 -15.109375 C 48.734375 -11.910156 46.332031 -9.039062 43.46875 -6.5 C 40.601562 -3.957031 37.113281 -1.953125 33 -0.484375 C 28.894531 0.984375 24.429688 1.71875 19.609375 1.71875 C 12.992188 1.71875 7.613281 0.195312 3.46875 -2.84375 C 0.207031 -5.25 -1.421875 -8.601562 -1.421875 -12.90625 C -1.421875 -15.8125 -0.722656 -18.421875 0.671875 -20.734375 C 2.078125 -23.046875 3.90625 -24.867188 6.15625 -26.203125 C 10.71875 -28.941406 15.691406 -30.3125 21.078125 -30.3125 C 21.078125 -35.59375 22.3125 -40.71875 24.78125 -45.6875 C 27.257812 -50.664062 30.546875 -54.953125 34.640625 -58.546875 C 38.734375 -62.148438 43.523438 -65.046875 49.015625 -67.234375 C 54.515625 -69.421875 60.164062 -70.515625 65.96875 -70.515625 C 67.988281 -70.515625 71.265625 -70.234375 75.796875 -69.671875 C 81.953125 -71.890625 86.53125 -73.097656 89.53125 -73.296875 Z M 89.53125 -73.296875 "/></g></g></g><g fill="#ffffff" fill-opacity="1"><g transform="translate(163.492712, 262.607517)"><g><path d="M 27.046875 -28.453125 L 34.671875 -28.453125 L 30.8125 -13.84375 C 30.1875 -11.78125 29.875 -9.910156 29.875 -8.234375 C 29.875 -6.554688 30.164062 -5.71875 30.75 -5.71875 C 31.34375 -5.71875 32.148438 -6.226562 33.171875 -7.25 C 34.203125 -8.28125 35.078125 -9.316406 35.796875 -10.359375 L 36.921875 -11.9375 L 39.015625 -9.96875 C 37.941406 -7.882812 36.570312 -5.976562 34.90625 -4.25 C 31.6875 -0.894531 28.882812 0.78125 26.5 0.78125 C 23.695312 0.78125 22.296875 -1.382812 22.296875 -5.71875 C 22.296875 -6.4375 22.328125 -6.972656 22.390625 -7.328125 C 21.898438 -5.671875 20.972656 -4.207031 19.609375 -2.9375 C 17.003906 -0.457031 14.0625 0.78125 10.78125 0.78125 C 7.507812 0.78125 4.882812 -0.332031 2.90625 -2.5625 C 0.9375 -4.800781 -0.046875 -7.597656 -0.046875 -10.953125 C -0.046875 -16.171875 1.644531 -20.570312 5.03125 -24.15625 C 8.425781 -27.738281 12.40625 -29.53125 16.96875 -29.53125 C 19.25 -29.53125 21.140625 -28.898438 22.640625 -27.640625 C 24.140625 -26.390625 25.117188 -24.753906 25.578125 -22.734375 Z M 18.875 -25.328125 C 16.976562 -25.328125 15.207031 -24.535156 13.5625 -22.953125 C 11.914062 -21.367188 10.648438 -19.460938 9.765625 -17.234375 C 8.890625 -15.003906 8.453125 -12.828125 8.453125 -10.703125 C 8.453125 -8.585938 8.914062 -6.878906 9.84375 -5.578125 C 10.78125 -4.273438 12.21875 -3.625 14.15625 -3.625 C 16.09375 -3.625 17.84375 -4.503906 19.40625 -6.265625 C 22.375 -9.648438 23.859375 -13.671875 23.859375 -18.328125 C 23.859375 -22.992188 22.195312 -25.328125 18.875 -25.328125 Z M 18.875 -25.328125 "/></g></g></g><g fill="#ffffff" fill-opacity="1"><g transform="translate(205.10226, 262.607517)"><g><path d="M 6.65625 -28.453125 C 10.007812 -38.890625 13.429688 -47.628906 16.921875 -54.671875 L 22.984375 -54.171875 C 22.617188 -53.128906 21.738281 -50.617188 20.34375 -46.640625 C 17.3125 -37.878906 15.351562 -31.816406 14.46875 -28.453125 L 22.15625 -28.453125 L 21.375 -25.234375 L 13.453125 -25.234375 C 10.453125 -15.972656 8.953125 -10.335938 8.953125 -8.328125 C 8.953125 -6.328125 9.15625 -5.328125 9.5625 -5.328125 C 9.96875 -5.328125 10.332031 -5.410156 10.65625 -5.578125 C 11.539062 -6.066406 13.429688 -8.445312 16.328125 -12.71875 L 18.34375 -10.90625 C 16.15625 -6.925781 13.898438 -3.984375 11.578125 -2.078125 C 9.265625 -0.171875 7.359375 0.78125 5.859375 0.78125 C 4.367188 0.78125 3.238281 0.257812 2.46875 -0.78125 C 1.695312 -1.820312 1.3125 -3.160156 1.3125 -4.796875 C 1.3125 -8.929688 2.765625 -15.742188 5.671875 -25.234375 L 0.53125 -25.234375 L 1.3125 -28.453125 Z M 6.65625 -28.453125 "/></g></g></g><g fill="#ffffff" fill-opacity="1"><g transform="translate(227.056067, 262.607517)"><g><path d="M 26.84375 -23.125 C 25.601562 -23.125 24.132812 -22.332031 22.4375 -20.75 C 20.75 -19.175781 19.101562 -17.25 17.5 -14.96875 C 14.957031 -11.3125 12.367188 -7.101562 9.734375 -2.34375 L 8.40625 0 L 1.515625 0 C 1.515625 0 2.019531 -1.53125 3.03125 -4.59375 C 5.863281 -13.070312 7.28125 -18.097656 7.28125 -19.671875 C 7.28125 -21.253906 7.019531 -22.046875 6.5 -22.046875 C 5.550781 -22.046875 4.425781 -20.921875 3.125 -18.671875 C 2.832031 -18.148438 2.585938 -17.734375 2.390625 -17.421875 C 2.203125 -17.117188 1.984375 -16.742188 1.734375 -16.296875 C 1.492188 -15.859375 1.335938 -15.59375 1.265625 -15.5 L -2 -17.40625 C 0.539062 -21.539062 2.867188 -24.59375 4.984375 -26.5625 C 7.109375 -28.539062 9.273438 -29.53125 11.484375 -29.53125 C 12.492188 -29.53125 13.363281 -29.101562 14.09375 -28.25 C 14.832031 -27.40625 15.203125 -26.40625 15.203125 -25.25 C 15.203125 -24.09375 15.132812 -23.066406 15 -22.171875 C 14.875 -21.273438 14.726562 -20.453125 14.5625 -19.703125 C 14.40625 -18.953125 14.179688 -18.054688 13.890625 -17.015625 C 13.597656 -15.972656 13.359375 -15.171875 13.171875 -14.609375 C 12.992188 -14.054688 12.757812 -13.304688 12.46875 -12.359375 C 12.175781 -11.421875 12 -10.867188 11.9375 -10.703125 C 12.519531 -11.878906 13.507812 -13.609375 14.90625 -15.890625 C 16.3125 -18.171875 17.222656 -19.601562 17.640625 -20.1875 C 18.066406 -20.78125 18.65625 -21.566406 19.40625 -22.546875 C 20.15625 -23.523438 20.816406 -24.28125 21.390625 -24.8125 C 21.960938 -25.351562 22.644531 -25.972656 23.4375 -26.671875 C 24.238281 -27.367188 25 -27.898438 25.71875 -28.265625 C 27.539062 -29.109375 29.300781 -29.53125 31 -29.53125 C 32.695312 -29.53125 34.054688 -29.03125 35.078125 -28.03125 C 36.109375 -27.039062 36.625 -25.882812 36.625 -24.5625 C 36.625 -23.25 36.207031 -22.09375 35.375 -21.09375 C 34.539062 -20.101562 33.578125 -19.609375 32.484375 -19.609375 C 31.398438 -19.609375 30.546875 -19.796875 29.921875 -20.171875 C 29.304688 -20.546875 28.882812 -20.945312 28.65625 -21.375 C 27.96875 -22.539062 27.363281 -23.125 26.84375 -23.125 Z M 26.84375 -23.125 "/></g></g></g><g fill="#ffffff" fill-opacity="1"><g transform="translate(264.411755, 262.607517)"><g><path d="M 27.046875 -28.453125 L 34.671875 -28.453125 L 30.8125 -13.84375 C 30.1875 -11.78125 29.875 -9.910156 29.875 -8.234375 C 29.875 -6.554688 30.164062 -5.71875 30.75 -5.71875 C 31.34375 -5.71875 32.148438 -6.226562 33.171875 -7.25 C 34.203125 -8.28125 35.078125 -9.316406 35.796875 -10.359375 L 36.921875 -11.9375 L 39.015625 -9.96875 C 37.941406 -7.882812 36.570312 -5.976562 34.90625 -4.25 C 31.6875 -0.894531 28.882812 0.78125 26.5 0.78125 C 23.695312 0.78125 22.296875 -1.382812 22.296875 -5.71875 C 22.296875 -6.4375 22.328125 -6.972656 22.390625 -7.328125 C 21.898438 -5.671875 20.972656 -4.207031 19.609375 -2.9375 C 17.003906 -0.457031 14.0625 0.78125 10.78125 0.78125 C 7.507812 0.78125 4.882812 -0.332031 2.90625 -2.5625 C 0.9375 -4.800781 -0.046875 -7.597656 -0.046875 -10.953125 C -0.046875 -16.171875 1.644531 -20.570312 5.03125 -24.15625 C 8.425781 -27.738281 12.40625 -29.53125 16.96875 -29.53125 C 19.25 -29.53125 21.140625 -28.898438 22.640625 -27.640625 C 24.140625 -26.390625 25.117188 -24.753906 25.578125 -22.734375 Z M 18.875 -25.328125 C 16.976562 -25.328125 15.207031 -24.535156 13.5625 -22.953125 C 11.914062 -21.367188 10.648438 -19.460938 9.765625 -17.234375 C 8.890625 -15.003906 8.453125 -12.828125 8.453125 -10.703125 C 8.453125 -8.585938 8.914062 -6.878906 9.84375 -5.578125 C 10.78125 -4.273438 12.21875 -3.625 14.15625 -3.625 C 16.09375 -3.625 17.84375 -4.503906 19.40625 -6.265625 C 22.375 -9.648438 23.859375 -13.671875 23.859375 -18.328125 C 23.859375 -22.992188 22.195312 -25.328125 18.875 -25.328125 Z M 18.875 -25.328125 "/></g></g></g></svg>