<svg xmlns="http://www.w3.org/2000/svg" xmlns:xlink="http://www.w3.org/1999/xlink" width="100" zoomAndPan="magnify" viewBox="0 0 75 30.000001" height="40" preserveAspectRatio="xMidYMid meet" version="1.0"><defs><g/></defs><g fill="#ff66c4" fill-opacity="1"><g transform="translate(0.40925, 21.476725)"><g><path d="M 15.136719 -19.191406 C 11.773438 -19.21875 8.714844 -18.199219 6.894531 -16.40625 C 5.019531 -14.558594 4.46875 -11.25 7.003906 -9.597656 C 7.75 -9.265625 8.878906 -10.09375 8.878906 -10.808594 C 6.976562 -14.394531 10.644531 -17.234375 15 -17.179688 C 18.0625 -17.125 19.660156 -15.800781 19.136719 -13.675781 C 18.613281 -11.609375 16.351562 -10.617188 13.785156 -10.644531 C 14.285156 -12.242188 14.808594 -14.285156 15.855469 -15 C 16.046875 -15.441406 14.890625 -16.046875 14.035156 -15.746094 C 11.222656 -14.695312 10.726562 -8.796875 9.15625 -4.714844 C 6.230469 -6.535156 2.371094 -5.84375 2.234375 -2.703125 C 2.152344 -0.632812 4.164062 0.277344 6.371094 0.25 C 8.050781 0.191406 9.457031 -0.441406 10.394531 -1.683594 C 11.941406 -0.523438 13.566406 0.21875 15.605469 0.25 C 18.722656 0.25 21.011719 -1.324219 21.589844 -4.410156 C 22.113281 -7.03125 20.320312 -9.539062 17.675781 -9.925781 C 19.550781 -10.035156 21.753906 -11.359375 22.167969 -13.539062 C 22.804688 -16.875 19.523438 -19.164062 15.136719 -19.191406 Z M 13.261719 -9.042969 C 14.339844 -9.128906 15.164062 -9.042969 16.046875 -8.824219 C 17.730469 -8.410156 19.027344 -7.140625 18.695312 -5.019531 C 18.0625 -0.964844 14.035156 -1.019531 11.359375 -3.28125 C 12.132812 -5.046875 12.710938 -7.28125 13.261719 -9.042969 Z M 6.644531 -3.941406 C 7.222656 -3.859375 7.914062 -3.5 8.464844 -3.171875 C 7.914062 -2.261719 7.222656 -1.820312 6.5625 -1.738281 C 4.109375 -1.460938 4.4375 -4.21875 6.644531 -3.941406 Z M 6.644531 -3.941406 "/></g></g></g><g fill="#ff66c4" fill-opacity="1"><g transform="translate(24.002956, 21.476725)"><g><path d="M 6.5625 -11.664062 C 3.445312 -11.140625 0.21875 -7.96875 -0.386719 -4.273438 C -0.882812 -1.1875 0.660156 0.277344 2.675781 0.25 C 4.90625 0.191406 6.121094 -1.515625 7.085938 -3.199219 C 6.753906 -1.15625 7.5 0.109375 8.824219 0.109375 C 11.414062 0.109375 13.566406 -2.535156 15 -5.542969 C 15.164062 -5.875 14.171875 -6.425781 14.035156 -6.09375 C 13.042969 -3.695312 11.167969 -1.820312 10.148438 -1.792969 C 9.511719 -1.792969 9.347656 -2.425781 9.652344 -3.804688 C 9.898438 -5.15625 10.394531 -6.8125 10.699219 -7.859375 C 10.589844 -8.4375 8.546875 -9.015625 8.050781 -8.382812 C 7.113281 -4.851562 4.355469 -0.660156 3.003906 -1.984375 C 2.371094 -2.621094 2.535156 -4.496094 3.390625 -6.285156 C 4.246094 -8.105469 5.761719 -9.511719 7.363281 -9.734375 C 8.628906 -9.898438 10.175781 -9.511719 11.304688 -8.601562 C 11.746094 -8.382812 12.878906 -9.652344 12.601562 -10.09375 C 11.058594 -11.664062 8.382812 -11.96875 6.5625 -11.664062 Z M 6.5625 -11.664062 "/></g></g></g><g fill="#ff66c4" fill-opacity="1"><g transform="translate(37.867016, 21.476725)"><g><path d="M 3.390625 0.25 C 6.148438 0.21875 8.160156 -2.066406 9.652344 -5.515625 C 9.789062 -5.875 8.851562 -6.425781 8.6875 -6.09375 C 7.527344 -3.472656 5.570312 -1.65625 3.96875 -1.683594 C 2.621094 -1.710938 2.621094 -3.585938 3.199219 -6.121094 C 3.445312 -7.28125 3.859375 -8.742188 4.273438 -10.175781 L 6.867188 -10.175781 C 7.28125 -10.3125 7.609375 -11.609375 7.085938 -11.996094 L 4.769531 -11.996094 C 5.40625 -14.089844 6.039062 -16.046875 6.644531 -17.730469 C 6.617188 -18.53125 4.109375 -18.832031 3.722656 -18.28125 C 3.171875 -16.875 2.316406 -14.3125 1.597656 -11.996094 L 0.496094 -11.996094 C 0.0546875 -11.828125 -0.277344 -10.476562 0.277344 -10.175781 L 1.101562 -10.175781 C -0.164062 -5.347656 -1.433594 0.304688 3.390625 0.25 Z M 3.390625 0.25 "/></g></g></g><g fill="#ff66c4" fill-opacity="1"><g transform="translate(46.356338, 21.476725)"><g><path d="M 0.71875 -4.632812 C 1.820312 -6.78125 2.507812 -8.714844 3.003906 -10.503906 C 3.585938 -9.816406 4.714844 -8.90625 4.082031 -7.941406 C 2.976562 -6.3125 1.792969 -4.496094 1.792969 -2.730469 C 1.792969 -1.019531 2.839844 0.21875 4.992188 0.25 C 8.21875 0.277344 10.394531 -2.261719 11.828125 -5.542969 C 11.96875 -5.84375 11.03125 -6.425781 10.890625 -6.121094 C 9.402344 -2.894531 7.363281 -1.710938 6.066406 -1.710938 C 5.183594 -1.710938 4.878906 -2.316406 4.9375 -3.117188 C 5.019531 -4.410156 5.984375 -5.902344 7.03125 -7.222656 C 8.410156 -8.988281 5.652344 -10.726562 4.109375 -12.324219 C 5.101562 -16.242188 -0.359375 -14.722656 2.066406 -11.25 C 1.40625 -8.851562 0.828125 -7.390625 -0.277344 -5.15625 C -0.46875 -4.796875 0.523438 -4.300781 0.71875 -4.632812 Z M 0.71875 -4.632812 "/></g></g></g><g fill="#ff66c4" fill-opacity="1"><g transform="translate(57.023122, 21.476725)"><g><path d="M 6.5625 -11.664062 C 3.445312 -11.140625 0.21875 -7.96875 -0.386719 -4.273438 C -0.882812 -1.1875 0.660156 0.277344 2.675781 0.25 C 4.90625 0.191406 6.121094 -1.515625 7.085938 -3.199219 C 6.753906 -1.15625 7.5 0.109375 8.824219 0.109375 C 11.414062 0.109375 13.566406 -2.535156 15 -5.542969 C 15.164062 -5.875 14.171875 -6.425781 14.035156 -6.09375 C 13.042969 -3.695312 11.167969 -1.820312 10.148438 -1.792969 C 9.511719 -1.792969 9.347656 -2.425781 9.652344 -3.804688 C 9.898438 -5.15625 10.394531 -6.8125 10.699219 -7.859375 C 10.589844 -8.4375 8.546875 -9.015625 8.050781 -8.382812 C 7.113281 -4.851562 4.355469 -0.660156 3.003906 -1.984375 C 2.371094 -2.621094 2.535156 -4.496094 3.390625 -6.285156 C 4.246094 -8.105469 5.761719 -9.511719 7.363281 -9.734375 C 8.628906 -9.898438 10.175781 -9.511719 11.304688 -8.601562 C 11.746094 -8.382812 12.878906 -9.652344 12.601562 -10.09375 C 11.058594 -11.664062 8.382812 -11.96875 6.5625 -11.664062 Z M 6.5625 -11.664062 "/></g></g></g></svg>